<svg version="1.1" xmlns="http://www.w3.org/2000/svg" width="100" height="100">
<path d="M0 0 C1.06734375 -0.00257813 2.1346875 -0.00515625 3.234375 -0.0078125 C4.91273437 0.00378906 4.91273437 0.00378906 6.625 0.015625 C7.74390625 0.00789062 8.8628125 0.00015625 10.015625 -0.0078125 C11.08296875 -0.00523437 12.1503125 -0.00265625 13.25 0 C14.23226562 0.00225586 15.21453125 0.00451172 16.2265625 0.00683594 C18.625 0.265625 18.625 0.265625 20.625 2.265625 C20.26886967 7.17318331 19.01630137 11.46926554 17.33984375 16.07421875 C16.89189453 17.31494141 16.44394531 18.55566406 15.98242188 19.83398438 C15.50926148 21.12375182 15.03595236 22.41346471 14.5625 23.703125 C14.084668 25.01995804 13.60744877 26.3370136 13.13085938 27.65429688 C11.96823922 30.86031003 10.79945227 34.06393144 9.625 37.265625 C10.19009277 37.25515137 10.75518555 37.24467773 11.33740234 37.23388672 C13.89155653 37.19237712 16.44563982 37.1663154 19 37.140625 C19.88945313 37.12386719 20.77890625 37.10710938 21.6953125 37.08984375 C22.97148438 37.08017578 22.97148438 37.08017578 24.2734375 37.0703125 C25.45172119 37.05460205 25.45172119 37.05460205 26.65380859 37.03857422 C28.625 37.265625 28.625 37.265625 30.625 39.265625 C30.26403466 43.14775971 28.83116859 46.16723124 27.03515625 49.58984375 C26.50277344 50.61078125 25.97039062 51.63171875 25.421875 52.68359375 C24.84953125 53.76253906 24.2771875 54.84148438 23.6875 55.953125 C23.10355469 57.05914062 22.51960938 58.16515625 21.91796875 59.3046875 C20.72750002 61.55306186 19.53366238 63.79965575 18.33642578 66.04443359 C16.776848 68.9798215 15.24283322 71.92699925 13.71484375 74.87890625 C12.85294705 76.50854552 11.98975668 78.13750155 11.125 79.765625 C10.54890991 80.8942395 10.54890991 80.8942395 9.96118164 82.0456543 C7.28101492 86.99550121 7.28101492 86.99550121 3.96875 88.359375 C1.625 88.265625 1.625 88.265625 -0.375 86.265625 C-0.69015777 76.31564392 0.13560858 60.24440784 4.625 51.265625 C3.73192139 51.28133545 3.73192139 51.28133545 2.82080078 51.29736328 C0.13057657 51.33886449 -2.55958037 51.36493204 -5.25 51.390625 C-6.18714844 51.40738281 -7.12429687 51.42414062 -8.08984375 51.44140625 C-8.98574219 51.44785156 -9.88164063 51.45429687 -10.8046875 51.4609375 C-11.63210449 51.47141113 -12.45952148 51.48188477 -13.31201172 51.49267578 C-15.375 51.265625 -15.375 51.265625 -17.375 49.265625 C-16.96119389 43.39967113 -15.69591965 37.74462239 -14.37890625 32.0234375 C-14.18530014 31.17385468 -13.99169403 30.32427185 -13.79222107 29.44894409 C-13.38496095 27.66861127 -12.97559456 25.88875907 -12.56420898 24.109375 C-11.9349181 21.37942435 -11.31779788 18.64689803 -10.70117188 15.9140625 C-10.30281984 14.17951819 -9.90375668 12.44513701 -9.50390625 10.7109375 C-9.32050186 9.89327911 -9.13709747 9.07562073 -8.94813538 8.23318481 C-7.45238129 1.84744416 -6.63674315 0.01524186 0 0 Z " fill="#94D82C" transform="translate(43.375,5.734375)"/>
</svg>