<svg width="512" height="512" viewBox="0 0 512 512" fill="none" xmlns="http://www.w3.org/2000/svg">
  <!-- Background -->
  <rect width="512" height="512" rx="64" fill="#16a34a"/>
  
  <!-- GitHub Bridge Icon -->
  <g transform="translate(128, 128)">
    <!-- Bridge structure -->
    <path d="M32 192 L224 192 L224 160 L32 160 Z" fill="white" opacity="0.9"/>
    <path d="M32 128 L224 128 L224 96 L32 96 Z" fill="white"/>
    
    <!-- Bridge pillars -->
    <rect x="64" y="96" width="16" height="96" fill="white"/>
    <rect x="176" y="96" width="16" height="96" fill="white"/>
    
    <!-- Git branch symbol -->
    <circle cx="48" cy="48" r="12" fill="white"/>
    <circle cx="128" cy="48" r="12" fill="white"/>
    <circle cx="208" cy="48" r="12" fill="white"/>
    
    <!-- Connection lines -->
    <path d="M60 48 L116 48" stroke="white" stroke-width="4" fill="none"/>
    <path d="M140 48 L196 48" stroke="white" stroke-width="4" fill="none"/>
    
    <!-- Upload arrow -->
    <path d="M128 208 L128 240 M112 224 L128 208 L144 224" stroke="white" stroke-width="6" fill="none" stroke-linecap="round" stroke-linejoin="round"/>
  </g>
  
  <!-- Subtle gradient overlay -->
  <defs>
    <radialGradient id="shine" cx="0.3" cy="0.3" r="0.8">
      <stop offset="0%" stop-color="rgba(255,255,255,0.2)"/>
      <stop offset="100%" stop-color="rgba(255,255,255,0)"/>
    </radialGradient>
  </defs>
  <rect width="512" height="512" rx="64" fill="url(#shine)"/>
</svg>